<?xml version="1.0" standalone="no"?>
<!DOCTYPE svg PUBLIC "-//W3C//DTD SVG 20010904//EN"
 "http://www.w3.org/TR/2001/REC-SVG-20010904/DTD/svg10.dtd">
<svg version="1.0" xmlns="http://www.w3.org/2000/svg"
 width="1392.000000pt" height="945.000000pt" viewBox="0 0 1392.000000 945.000000"
 preserveAspectRatio="xMidYMid meet">
<metadata>
Created by potrace 1.14, written by Peter Selinger 2001-2017
</metadata>
<g transform="translate(0.000000,945.000000) scale(0.100000,-0.100000)"
fill="#000000" stroke="none">
<path d="M11143 9435 c-621 -118 -1190 -561 -1473 -1147 -142 -295 -203 -608
-202 -1048 0 -440 81 -881 216 -1184 14 -32 26 -67 26 -78 0 -42 -48 -108
-171 -234 -71 -72 -129 -139 -129 -147 0 -31 208 -183 370 -270 175 -94 429
-180 650 -219 98 -17 492 -18 538 -1 28 10 41 9 96 -12 150 -56 221 -69 386
-69 165 0 236 13 386 69 55 21 68 22 96 12 46 -17 440 -16 538 1 221 39 476
125 650 219 161 87 362 232 368 266 2 11 -42 64 -126 150 -124 127 -172 193
-172 235 0 11 13 48 29 83 34 76 92 251 120 364 111 446 125 1002 36 1441
-135 666 -692 1279 -1366 1502 -211 70 -333 86 -544 73 -22 -1 -87 0 -145 3
-68 3 -131 0 -177 -9z m307 -86 c14 0 70 3 125 7 81 5 120 2 205 -16 360 -73
707 -268 992 -557 171 -172 278 -322 378 -528 125 -256 179 -506 195 -900 19
-434 -73 -976 -214 -1275 -35 -73 -37 -99 -16 -159 22 -64 70 -127 171 -228
l93 -92 -67 -49 c-218 -161 -488 -281 -759 -337 -139 -29 -370 -47 -469 -37
l-72 7 74 62 c273 232 481 634 579 1118 51 253 84 678 69 878 l-9 108 -80 2
c-67 2 -92 8 -149 35 -100 47 -179 107 -286 218 -152 158 -295 358 -434 611
-168 304 -276 636 -276 849 l0 74 -50 0 -50 0 0 -74 c0 -213 -108 -545 -276
-849 -139 -253 -282 -453 -434 -611 -107 -111 -186 -171 -286 -218 -57 -27
-82 -33 -149 -35 l-80 -2 -8 -108 c-16 -202 17 -628 68 -878 55 -269 146 -523
257 -718 92 -162 225 -324 342 -417 l56 -45 -72 -7 c-101 -10 -331 8 -471 37
-271 56 -541 176 -759 337 l-67 49 93 92 c101 101 149 164 171 228 22 61 19
82 -24 178 -230 516 -276 1404 -100 1941 136 414 449 800 854 1055 178 112
397 202 595 244 75 16 118 20 205 16 61 -3 121 -6 135 -6z m24 -646 c94 -334
345 -784 607 -1088 169 -196 329 -307 492 -344 l72 -17 3 -99 c7 -223 -30
-602 -84 -845 -83 -372 -256 -719 -465 -930 -132 -133 -223 -187 -414 -242
-68 -20 -103 -23 -235 -23 -166 0 -227 12 -380 72 -311 123 -615 588 -734
1123 -54 246 -91 611 -84 840 l3 104 72 17 c227 51 461 260 707 629 108 161
216 354 277 491 48 108 129 338 129 365 0 35 17 8 34 -53z"/>
<path d="M10860 6116 c0 -47 40 -153 79 -207 104 -145 291 -229 511 -229 220
0 407 84 511 229 39 54 79 160 79 207 0 22 -4 24 -44 24 l-43 0 -6 -45 c-18
-131 -140 -251 -312 -305 -107 -34 -272 -32 -380 4 -95 32 -133 55 -199 116
-55 50 -106 146 -106 198 0 31 -1 32 -45 32 -41 0 -45 -2 -45 -24z"/>
<path d="M1970 9405 c-110 -15 -229 -44 -332 -81 -445 -160 -740 -543 -852
-1106 -37 -184 -50 -329 -50 -564 l0 -211 -65 -7 c-100 -9 -159 -34 -217 -91
-71 -70 -89 -127 -88 -270 1 -131 28 -235 100 -384 61 -129 122 -218 197 -288
57 -53 82 -69 138 -86 9 -3 30 -44 49 -94 18 -48 64 -149 101 -223 239 -478
584 -796 992 -914 185 -54 313 -57 489 -12 484 123 878 514 1122 1115 51 124
51 124 93 138 83 28 198 154 279 307 151 285 174 559 57 695 -55 65 -167 111
-270 111 l-36 0 6 112 c17 327 -37 712 -140 988 -143 384 -408 657 -761 784
-242 87 -548 117 -812 81z m485 -90 c219 -33 411 -105 569 -215 256 -177 443
-495 521 -884 38 -194 48 -305 49 -583 1 -174 5 -266 12 -273 6 -6 53 -12 105
-13 121 -3 179 -29 223 -101 74 -119 30 -376 -103 -604 -88 -151 -193 -247
-261 -240 -30 3 -31 2 -59 -82 -158 -467 -473 -870 -824 -1055 -151 -79 -347
-135 -477 -135 -191 0 -460 101 -652 246 -104 77 -264 242 -344 354 -125 175
-245 406 -308 597 -27 81 -28 82 -56 76 -113 -22 -319 267 -381 535 -27 117
-24 235 9 299 40 77 125 115 250 112 46 -1 77 2 85 10 8 8 12 88 13 284 2 455
59 741 201 1020 188 368 496 584 930 651 121 19 375 19 498 1z"/>
<path d="M1471 7915 c-98 -22 -169 -61 -242 -134 -73 -73 -115 -150 -133 -243
l-11 -58 -37 0 c-38 0 -38 0 -38 -40 0 -40 0 -40 38 -40 l37 0 12 -61 c16 -82
54 -158 113 -222 63 -69 114 -104 194 -133 186 -67 378 -22 516 122 77 80 117
162 131 275 14 100 23 124 66 157 94 71 243 5 243 -108 0 -54 27 -155 56 -212
15 -29 53 -80 86 -114 136 -142 329 -187 514 -120 157 57 277 197 308 358 l11
58 37 0 c38 0 38 0 38 40 0 40 0 40 -38 40 l-37 0 -11 58 c-18 90 -61 169
-134 243 -159 160 -397 190 -594 75 -86 -50 -174 -162 -205 -258 -13 -38 -24
-47 -36 -28 -16 25 -92 53 -145 53 -53 0 -129 -28 -145 -53 -12 -19 -23 -10
-36 28 -31 96 -119 208 -205 258 -104 61 -242 84 -353 59z m191 -56 c125 -26
242 -122 301 -246 30 -63 32 -76 32 -174 0 -101 -1 -108 -37 -180 -47 -95
-112 -160 -207 -207 -72 -36 -79 -37 -180 -37 -98 0 -111 2 -174 32 -272 129
-341 472 -138 686 105 111 253 157 403 126z m1291 -4 c84 -22 134 -51 197
-114 214 -214 150 -562 -127 -694 -63 -30 -76 -32 -173 -32 -100 0 -109 2
-180 36 -118 57 -188 136 -231 261 -31 92 -23 211 19 302 90 192 297 293 495
241z"/>
<path d="M1620 6116 c0 -47 40 -153 79 -207 104 -145 291 -229 510 -229 220 0
398 79 507 223 43 57 84 162 84 213 0 22 -4 24 -44 24 l-43 0 -6 -45 c-9 -64
-48 -134 -104 -186 -65 -60 -103 -82 -198 -115 -152 -52 -362 -33 -495 44
-107 62 -200 187 -200 270 0 31 -1 32 -45 32 -41 0 -45 -2 -45 -24z"/>
<path d="M6450 9410 c-628 -87 -1012 -433 -1180 -1062 -52 -198 -71 -352 -77
-644 l-6 -260 -78 -10 c-200 -27 -292 -138 -290 -352 1 -288 223 -690 417
-757 34 -11 38 -18 74 -111 112 -298 299 -586 512 -789 201 -193 425 -311 688
-365 124 -25 186 -25 310 0 392 80 709 311 973 710 76 116 191 341 235 464 26
72 31 79 66 91 135 47 292 264 377 520 31 93 33 110 34 235 0 124 -2 139 -25
184 -50 102 -140 158 -273 172 l-64 6 -6 257 c-8 377 -51 623 -151 873 -183
454 -508 722 -993 819 -122 24 -428 35 -543 19z m552 -109 c584 -126 915 -525
1025 -1236 10 -65 17 -205 20 -397 4 -225 8 -300 18 -308 7 -6 55 -12 107 -13
131 -4 194 -39 234 -132 27 -62 23 -207 -9 -315 -51 -171 -144 -337 -242 -429
-60 -57 -96 -75 -134 -66 -25 5 -27 2 -54 -81 -91 -281 -288 -607 -486 -805
-282 -282 -664 -432 -951 -375 -424 86 -776 379 -1028 856 -58 108 -135 292
-152 363 -12 47 -13 47 -46 41 -44 -8 -86 18 -161 100 -178 194 -286 549 -218
713 38 90 103 126 233 130 52 1 100 7 107 13 10 8 14 84 18 313 6 381 31 551
114 791 172 497 522 784 1043 856 115 16 452 4 562 -19z"/>
<path d="M6078 6135 c-11 -12 13 -114 42 -171 35 -71 118 -154 202 -202 91
-52 214 -82 338 -82 193 0 345 56 461 170 76 75 118 152 126 234 l6 56 -41 0
-40 0 -11 -52 c-32 -145 -153 -256 -331 -304 -86 -23 -244 -23 -329 -1 -178
47 -312 173 -336 315 -7 41 -8 42 -44 42 -21 0 -40 -2 -43 -5z"/>
<path d="M1282 5254 c-18 -9 -42 -30 -53 -45 -37 -53 -169 -387 -169 -429 0
-22 -3 -40 -7 -40 -16 0 -1009 -241 -1030 -250 -25 -10 -31 -47 -10 -55 10 -4
1045 241 1097 259 11 4 103 -112 305 -385 178 -240 295 -389 304 -387 8 2 120
168 250 370 130 202 238 368 241 368 3 0 110 -165 239 -366 129 -200 237 -367
242 -369 4 -3 13 -3 21 0 7 3 141 179 298 390 204 275 289 383 300 379 8 -3
229 -57 490 -120 261 -63 484 -117 494 -121 14 -4 -17 -19 -100 -48 -381 -134
-611 -294 -776 -540 -54 -80 -194 -343 -186 -350 2 -1 13 -7 25 -14 20 -10 25
-4 92 125 99 191 151 265 260 375 112 112 198 170 376 255 196 94 326 133 970
289 325 79 597 146 606 150 12 5 80 -80 289 -362 299 -403 312 -419 330 -408
7 4 48 62 91 129 60 93 79 115 80 96 0 -14 4 -65 8 -113 7 -75 12 -94 38 -130
l30 -43 -128 -1624 c-71 -894 -128 -1630 -129 -1637 0 -12 470 -586 491 -598
5 -4 17 -1 25 6 18 15 465 553 477 574 4 8 -40 594 -98 1302 -58 708 -119
1443 -134 1633 l-28 345 22 30 c34 46 45 90 45 186 0 49 3 89 8 89 4 0 41 -53
82 -118 71 -113 86 -132 103 -132 4 0 138 176 298 391 226 302 295 389 308
384 9 -4 274 -70 590 -146 631 -153 666 -163 826 -224 407 -156 606 -331 794
-698 32 -63 60 -120 63 -127 3 -10 9 -10 28 0 14 7 26 14 28 15 7 6 -129 263
-180 340 -102 156 -273 310 -460 413 -70 39 -240 112 -333 142 -56 19 -66 25
-50 31 11 5 261 76 555 159 294 83 541 153 549 156 8 2 -5 -16 -28 -41 -97
-105 -168 -246 -197 -388 -19 -90 -15 -256 7 -344 11 -45 16 -53 36 -53 14 0
126 69 270 165 135 91 250 162 254 158 5 -5 40 -64 79 -131 181 -317 382 -584
597 -793 136 -133 222 -197 258 -194 41 5 129 77 285 234 202 203 412 487 572
773 33 60 64 111 68 113 4 3 119 -69 254 -160 144 -97 255 -165 269 -165 20 0
25 8 36 53 23 90 26 265 7 351 -32 141 -103 279 -197 380 l-41 45 74 -21 c40
-11 309 -87 597 -169 288 -81 528 -146 532 -143 9 5 13 54 5 54 -3 0 -346 97
-762 215 -417 118 -759 213 -761 212 -1 -2 39 -27 89 -57 174 -103 266 -198
344 -355 59 -120 77 -208 71 -353 -2 -62 -9 -118 -15 -124 -12 -12 -23 -5
-300 184 -113 77 -211 142 -217 144 -6 3 -21 -17 -34 -43 -40 -84 -161 -283
-262 -433 -170 -253 -341 -452 -506 -590 -53 -44 -104 -80 -113 -80 -9 0 -60
36 -113 80 -164 137 -333 334 -506 590 -101 149 -221 348 -262 433 -13 26 -28
46 -34 43 -6 -2 -103 -67 -216 -143 -279 -191 -289 -197 -303 -183 -7 7 -11
61 -11 158 1 132 3 155 27 225 60 179 186 328 370 438 59 35 106 64 104 66 -5
5 -1521 -428 -1526 -437 -3 -5 -149 27 -325 70 -176 43 -438 106 -583 141
l-262 63 5 31 c5 23 -13 76 -75 225 -44 107 -91 205 -103 218 -46 49 -120 67
-170 41 -12 -7 -197 -122 -411 -258 -214 -135 -392 -245 -396 -244 -3 1 -177
111 -386 243 -208 133 -391 248 -406 256 -56 29 -128 13 -176 -38 -12 -14 -59
-112 -103 -219 -62 -149 -79 -201 -75 -224 l6 -30 -549 -133 c-437 -106 -553
-131 -572 -123 -22 9 -1016 251 -1032 251 -4 0 -7 17 -7 39 0 41 -133 379
-169 430 -11 16 -37 36 -57 46 -75 36 -88 30 -517 -244 -217 -138 -400 -251
-407 -251 -6 0 -190 113 -408 252 -344 218 -402 252 -442 255 -29 2 -57 -2
-78 -13z m444 -265 c192 -122 370 -235 397 -251 29 -19 44 -34 40 -41 -90
-147 -446 -691 -451 -688 -4 2 -140 182 -303 401 l-297 397 64 154 c35 85 71
169 81 187 19 38 55 61 94 62 17 0 144 -75 375 -221z m1388 209 c14 -6 32 -21
39 -32 19 -28 147 -339 147 -355 0 -19 -593 -812 -600 -803 -6 6 -428 663
-443 688 -4 7 56 51 156 115 532 338 632 399 653 399 13 0 34 -5 48 -12z
m3100 -229 c210 -133 387 -248 395 -254 13 -13 -16 -61 -383 -628 l-57 -88
-292 393 c-161 216 -296 398 -300 405 -4 7 24 89 64 188 78 190 103 225 161
225 23 0 128 -61 412 -241z m1375 214 c36 -34 177 -368 163 -386 -4 -7 -138
-186 -296 -399 -159 -214 -292 -388 -296 -388 -4 0 -108 156 -230 346 -157
243 -219 349 -212 356 6 6 183 120 394 254 418 266 422 268 477 217z m-790
-726 l121 -188 0 -95 0 -96 -175 211 c-96 116 -175 215 -175 220 0 20 92 153
100 144 5 -4 63 -92 129 -196z m-70 -237 c172 -207 190 -232 181 -254 -16 -44
-47 -56 -140 -56 l-85 1 -137 164 c-76 90 -139 168 -140 174 -3 12 113 201
124 201 3 0 92 -103 197 -230z m-183 -308 c-36 -2 -75 2 -87 8 -32 18 -49 71
-49 155 l0 76 101 -118 100 -118 -65 -3z m190 -159 c54 -65 107 -127 117 -140
14 -17 21 -59 32 -185 8 -90 15 -178 15 -196 0 -30 -18 -12 -215 225 -233 281
-226 268 -209 376 l7 37 76 0 77 0 100 -117z m-48 -386 c159 -193 223 -277
226 -300 9 -51 28 -328 24 -332 -2 -2 -115 129 -252 293 l-248 297 6 85 c10
139 19 231 21 228 1 -2 101 -124 223 -271z m-8 -417 c134 -162 249 -302 257
-311 9 -11 19 -75 29 -194 8 -98 13 -179 10 -182 -2 -2 -131 146 -286 329
l-282 333 6 100 c8 114 18 227 21 223 1 -2 111 -136 245 -298z m18 -447 l291
-352 16 -182 c9 -100 15 -183 13 -184 -2 -2 -147 170 -322 382 l-319 385 7 96
c8 112 18 214 21 210 1 -2 133 -161 293 -355z m-13 -403 c169 -201 316 -374
325 -385 14 -16 21 -59 33 -210 9 -104 15 -191 13 -192 -2 -2 -162 188 -356
423 l-353 426 7 96 c8 114 18 214 21 210 1 -2 141 -167 310 -368z m72 -520
l310 -376 16 -184 c8 -102 14 -186 14 -186 -1 -1 -177 210 -391 468 l-389 470
7 107 c4 58 9 127 13 153 l5 46 52 -61 c29 -34 192 -231 363 -437z m175 -638
l176 -214 4 -56 c4 -55 2 -59 -42 -114 -25 -31 -47 -57 -50 -57 -3 0 -169 198
-369 441 l-364 441 7 111 c4 61 9 130 12 153 l6 43 222 -268 c122 -147 301
-363 398 -480z m-281 -87 c173 -209 319 -386 323 -393 7 -12 -117 -173 -132
-171 -4 0 -137 158 -296 351 l-289 351 7 121 c4 66 9 135 12 153 l6 31 27 -31
c15 -18 169 -203 342 -412z m-122 -278 c149 -180 271 -332 271 -337 0 -12
-118 -155 -129 -155 -5 0 -106 117 -225 260 l-217 260 6 120 c5 112 14 190 20
183 1 -2 125 -151 274 -331z"/>
<path d="M10650 4943 c-8 -2 -21 -6 -27 -8 -15 -5 48 -191 122 -357 164 -372
415 -678 650 -793 l55 -27 55 27 c287 140 563 522 741 1023 47 131 47 123 -3
137 -7 2 -23 -29 -39 -78 -121 -367 -344 -734 -554 -911 -71 -60 -175 -126
-200 -126 -25 0 -129 66 -200 126 -210 177 -433 544 -554 912 -15 45 -28 82
-29 81 -1 0 -9 -3 -17 -6z"/>
</g>
</svg>
