<?xml version="1.0" standalone="no"?>
<!DOCTYPE svg PUBLIC "-//W3C//DTD SVG 20010904//EN"
 "http://www.w3.org/TR/2001/REC-SVG-20010904/DTD/svg10.dtd">
<svg version="1.0" xmlns="http://www.w3.org/2000/svg"
 width="1354.000000pt" height="1105.000000pt" viewBox="0 0 1354.000000 1105.000000"
 preserveAspectRatio="xMidYMid meet">
<metadata>
Created by potrace 1.14, written by Peter Selinger 2001-2017
</metadata>
<g transform="translate(0.000000,1105.000000) scale(0.100000,-0.100000)"
fill="#000000" stroke="none">
<path d="M4035 11039 c-163 -14 -437 -55 -630 -94 -388 -79 -728 -178 -1410
-410 -609 -208 -755 -256 -975 -319 -318 -93 -571 -141 -790 -152 -140 -7
-182 -21 -211 -68 -18 -30 -19 -146 -19 -4525 l0 -4494 20 -33 c14 -21 36 -39
66 -50 41 -15 60 -16 192 -6 367 29 698 111 1387 345 962 326 1150 386 1495
472 319 80 608 130 898 156 179 15 622 7 762 -15 521 -82 930 -281 1285 -627
134 -130 162 -144 233 -117 70 26 103 118 68 186 -19 36 -202 214 -301 292
-289 228 -591 376 -961 470 -239 62 -391 81 -681 87 -279 6 -452 -4 -722 -43
-521 -74 -941 -189 -1904 -520 -811 -279 -1091 -357 -1435 -403 l-132 -18 2
4321 3 4321 35 3 c90 6 280 36 426 68 232 49 510 132 999 299 932 318 1208
403 1595 489 363 82 628 116 956 123 337 8 562 -16 830 -86 642 -170 1172
-612 1454 -1214 26 -56 53 -120 60 -142 19 -59 45 -91 91 -109 78 -32 148 10
184 109 62 173 229 455 368 623 160 192 389 385 601 507 357 204 725 301 1197
312 415 10 812 -40 1321 -168 330 -82 573 -159 1278 -401 771 -265 1173 -373
1490 -403 36 -3 75 -8 88 -11 l22 -4 0 -4319 0 -4318 -112 14 c-336 40 -654
129 -1463 408 -1099 379 -1600 504 -2220 556 -181 15 -612 6 -755 -15 -611
-92 -1089 -321 -1485 -711 -103 -102 -130 -148 -120 -202 8 -46 59 -101 100
-109 60 -11 94 4 154 68 295 316 733 558 1176 651 361 77 841 77 1302 2 501
-82 853 -182 1928 -550 771 -263 1104 -348 1485 -377 147 -11 158 -11 195 8
21 10 48 32 59 47 l21 28 3 4487 c2 4257 1 4489 -15 4522 -32 63 -65 76 -210
83 -386 20 -698 103 -1813 487 -820 281 -1340 414 -1865 475 -192 22 -586 31
-755 16 -656 -57 -1194 -293 -1624 -711 -180 -175 -342 -383 -453 -581 -16
-27 -31 -49 -34 -49 -4 0 -31 42 -62 93 -323 538 -796 920 -1374 1110 -183 60
-298 88 -498 119 -151 23 -612 33 -800 17z"/>
<path d="M6711 8602 c-19 -9 -44 -30 -55 -45 l-21 -28 0 -3347 c0 -3271 0
-3348 19 -3375 26 -38 66 -57 121 -57 38 0 52 6 83 34 l37 34 2 3354 c3 3267
2 3354 -16 3384 -20 33 -75 64 -113 64 -12 0 -38 -8 -57 -18z"/>
<path d="M4155 1253 c-415 -33 -668 -74 -1068 -174 -345 -86 -546 -150 -1522
-483 -646 -220 -1003 -307 -1328 -325 -78 -4 -151 -12 -162 -18 -93 -50 -99
-179 -12 -234 30 -19 43 -20 177 -15 170 6 296 24 511 71 285 64 492 128 1494
469 670 227 1137 348 1570 405 691 91 1246 24 1720 -208 223 -110 396 -234
590 -424 55 -54 109 -100 120 -103 11 -2 255 -3 541 -2 l522 3 123 120 c376
365 812 568 1369 637 135 17 588 16 740 0 555 -62 1015 -177 1850 -462 539
-185 862 -291 1026 -339 360 -104 646 -159 875 -168 139 -6 149 -5 182 16 69
42 83 138 31 200 -31 38 -77 51 -176 51 -170 0 -467 54 -778 141 -102 29 -369
115 -595 192 -990 336 -1267 422 -1625 505 -916 214 -1640 200 -2257 -44 -301
-119 -566 -287 -796 -504 l-95 -90 -412 0 -412 0 -91 85 c-394 363 -841 579
-1377 664 -217 35 -539 50 -735 34z"/>
</g>
</svg>
