<?xml version="1.0" standalone="no"?>
<!DOCTYPE svg PUBLIC "-//W3C//DTD SVG 20010904//EN"
 "http://www.w3.org/TR/2001/REC-SVG-20010904/DTD/svg10.dtd">
<svg version="1.0" xmlns="http://www.w3.org/2000/svg"
 width="1338.000000pt" height="1339.000000pt" viewBox="0 0 1338.000000 1339.000000"
 preserveAspectRatio="xMidYMid meet">
<metadata>
Created by potrace 1.14, written by Peter Selinger 2001-2017
</metadata>
<g transform="translate(0.000000,1339.000000) scale(0.100000,-0.100000)"
fill="#000000" stroke="none">
<path d="M8020 13343 c25 -26 225 -232 445 -458 220 -226 416 -428 435 -448
l34 -38 -2209 -2209 -2210 -2210 -685 683 c-626 624 -691 686 -751 715 -185
89 -392 78 -560 -29 -47 -30 -375 -352 -1240 -1217 -1094 -1095 -1178 -1182
-1212 -1248 -135 -264 -58 -579 181 -737 176 -117 394 -128 586 -30 66 34 143
108 1031 995 l960 958 669 -669 c505 -505 684 -678 730 -705 143 -85 318 -105
469 -53 42 15 96 39 120 53 23 14 1138 1122 2478 2461 l2435 2434 498 -510
c274 -281 500 -511 502 -511 2 0 4 635 4 1410 l0 1410 -1377 0 -1377 0 44 -47z
m2540 -1242 l0 -1119 -227 232 c-126 127 -313 318 -418 424 l-190 192 -2490
-2489 c-1840 -1840 -2502 -2496 -2538 -2515 -111 -58 -240 -58 -355 -1 -61 31
-135 102 -792 760 l-725 725 -1010 -1009 c-953 -951 -1014 -1010 -1080 -1042
-65 -32 -76 -34 -170 -34 -91 0 -106 3 -165 31 -134 63 -220 189 -228 334 -6
96 14 166 68 248 26 39 449 466 1208 1219 1122 1115 1169 1161 1227 1182 110
42 215 38 322 -10 38 -18 198 -172 783 -755 l735 -734 2329 2329 2330 2330
-220 226 c-120 124 -299 309 -398 410 l-178 185 1091 0 1091 0 0 -1119z"/>
<path d="M8930 7984 c0 -1477 1 -1555 18 -1550 37 12 163 36 277 53 91 13 181
17 375 17 264 0 385 -11 578 -54 l82 -18 0 1554 0 1554 -665 0 -665 0 0 -1556z
m1130 25 l0 -1331 -37 6 c-246 38 -641 38 -850 0 l-33 -6 0 1331 0 1331 460 0
460 0 0 -1331z"/>
<path d="M7240 6789 l0 -1622 116 154 c158 209 223 285 356 415 218 215 423
361 696 496 l162 81 0 1049 0 1048 -665 0 -665 0 0 -1621z m1130 538 l0 -883
-76 -37 c-170 -84 -401 -237 -559 -371 -38 -32 -121 -109 -182 -170 l-113
-111 0 1228 0 1227 465 0 465 0 0 -883z"/>
<path d="M2160 4640 l0 -2080 665 0 665 0 -2 2078 -3 2077 -662 3 -663 2 0
-2080z m1130 -5 l0 -1875 -465 0 -465 0 0 1875 0 1875 465 0 465 0 0 -1875z"/>
<path d="M5545 6708 c-3 -7 -4 -942 -3 -2078 l3 -2065 665 0 665 0 0 2075 0
2075 -663 3 c-525 2 -664 0 -667 -10z m1125 -2073 l0 -1875 -460 0 -460 0 0
1875 0 1875 460 0 460 0 0 -1875z"/>
<path d="M9422 5879 c-799 -66 -1504 -603 -1786 -1362 -146 -391 -169 -841
-66 -1243 191 -741 769 -1321 1504 -1509 184 -47 328 -65 521 -65 391 0 711
90 1086 308 l86 50 989 -990 c1078 -1078 1029 -1033 1172 -1060 113 -21 242
20 331 105 93 90 125 172 119 310 -6 171 67 88 -1057 1211 l-989 989 39 64
c154 252 265 554 303 832 20 142 21 396 1 546 -129 979 -935 1739 -1925 1815
-150 11 -179 11 -328 -1z m349 -239 c428 -44 810 -220 1118 -515 154 -148 290
-337 386 -537 281 -587 232 -1280 -130 -1824 -642 -965 -1995 -1115 -2828
-314 -171 164 -295 333 -392 535 -313 649 -221 1423 235 1980 75 91 236 246
325 312 371 276 838 408 1286 363z"/>
<path d="M467 5583 c-4 -3 -7 -685 -7 -1515 l0 -1508 668 2 667 3 0 1510 0
1510 -661 3 c-363 1 -664 -1 -667 -5z m1123 -1513 l0 -1310 -460 0 -460 0 0
1310 0 1310 460 0 460 0 0 -1310z"/>
<path d="M3857 5583 c-4 -3 -7 -685 -7 -1515 l0 -1508 665 0 665 0 0 1515 0
1515 -658 0 c-362 0 -662 -3 -665 -7z m1123 -1513 l0 -1310 -465 0 -465 0 0
1310 0 1310 465 0 465 0 0 -1310z"/>
</g>
</svg>
