<?xml version="1.0" standalone="no"?>
<!DOCTYPE svg PUBLIC "-//W3C//DTD SVG 20010904//EN"
 "http://www.w3.org/TR/2001/REC-SVG-20010904/DTD/svg10.dtd">
<svg version="1.0" xmlns="http://www.w3.org/2000/svg"
 width="1028.000000pt" height="1379.000000pt" viewBox="0 0 1028.000000 1379.000000"
 preserveAspectRatio="xMidYMid meet">
<metadata>
Created by potrace 1.14, written by Peter Selinger 2001-2017
</metadata>
<g transform="translate(0.000000,1379.000000) scale(0.100000,-0.100000)"
fill="#000000" stroke="none">
<path d="M3540 13779 c-935 -102 -1742 -624 -2215 -1432 -173 -296 -300 -663
-356 -1028 -19 -121 -23 -187 -23 -409 -1 -279 6 -354 51 -580 88 -438 299
-886 589 -1250 83 -104 342 -364 444 -447 94 -75 230 -173 241 -173 5 0 9 117
9 260 l0 261 -131 127 c-403 390 -651 862 -735 1402 -25 159 -26 529 -1 685
84 536 318 997 701 1381 384 383 843 617 1378 700 158 25 518 25 678 1 751
-115 1400 -558 1783 -1218 268 -462 375 -1008 301 -1529 -59 -415 -238 -834
-491 -1151 l-61 -76 102 -11 c55 -6 166 -27 245 -47 79 -19 145 -34 146 -33 2
2 36 55 78 118 245 376 389 793 437 1265 16 157 13 486 -5 639 -60 504 -246
981 -536 1373 -465 629 -1135 1035 -1905 1153 -158 25 -574 36 -724 19z"/>
<path d="M3561 12884 c-491 -67 -945 -315 -1258 -687 -514 -613 -618 -1478
-262 -2188 53 -106 173 -291 213 -328 l26 -24 0 674 c0 405 4 707 10 757 16
122 62 294 108 401 357 825 1289 1193 2079 821 395 -186 696 -526 833 -939 73
-221 73 -223 79 -1011 l6 -705 46 60 c120 156 232 369 294 558 210 644 88
1336 -330 1872 -71 91 -229 249 -325 327 -272 217 -627 365 -988 413 -139 18
-391 18 -531 -1z"/>
<path d="M3616 11995 c-220 -46 -396 -138 -558 -293 -133 -128 -224 -273 -281
-447 -60 -182 -57 -73 -57 -2282 l0 -2025 -61 54 c-896 785 -1552 1096 -2041
968 -100 -26 -158 -53 -254 -116 -234 -154 -364 -394 -364 -673 0 -236 72
-483 244 -836 179 -367 341 -631 995 -1615 756 -1135 903 -1373 1405 -2260
539 -952 1207 -1628 2011 -2036 850 -430 1858 -547 2766 -319 1181 296 2147
1143 2597 2275 116 292 193 591 239 930 17 126 18 242 18 1730 l0 1595 -27 98
c-55 199 -170 392 -315 527 -365 342 -936 395 -1352 126 -82 -52 -76 -58 -85
74 -21 280 -190 581 -428 760 -199 151 -421 224 -678 224 -247 0 -477 -71
-679 -209 l-78 -52 -27 63 c-73 168 -235 356 -397 463 -105 69 -203 113 -338
149 -86 23 -114 26 -266 25 -153 0 -180 -2 -270 -27 -106 -29 -255 -95 -331
-146 -25 -16 -47 -30 -49 -30 -2 0 -6 530 -8 1178 -3 1057 -5 1185 -20 1252
-97 433 -393 748 -805 857 -82 22 -123 26 -267 29 -119 2 -190 -1 -239 -11z
m408 -571 c217 -53 404 -238 473 -469 17 -57 18 -186 21 -2397 l2 -2338 215 0
214 0 3 813 c4 904 -1 844 74 987 67 129 165 224 299 291 194 96 405 88 593
-23 90 -53 201 -170 249 -263 70 -137 67 -100 73 -765 l5 -605 215 0 215 0 5
390 c6 426 5 420 71 545 122 231 363 372 609 357 158 -10 285 -71 410 -197 60
-59 97 -106 122 -155 75 -146 72 -112 76 -777 l3 -598 213 0 213 0 6 158 c7
182 20 242 80 356 80 154 247 287 413 331 76 20 229 19 308 -1 177 -46 347
-188 427 -359 63 -134 60 -37 56 -1666 -3 -1462 -3 -1486 -24 -1614 -98 -596
-320 -1093 -699 -1570 -112 -141 -377 -406 -519 -519 -515 -411 -1098 -649
-1725 -707 -162 -14 -561 -7 -730 15 -1128 142 -1964 721 -2745 1901 -61 94
-200 317 -308 497 -349 582 -639 1042 -1205 1913 -641 986 -808 1258 -962
1570 -150 303 -197 459 -188 627 5 106 36 175 108 242 293 274 861 36 1717
-719 87 -77 305 -285 484 -462 179 -178 329 -323 332 -323 4 0 7 1123 7 2495
0 1804 3 2509 11 2547 26 124 118 273 221 358 60 50 160 106 230 129 94 31
219 32 332 5z"/>
</g>
</svg>
