<?xml version="1.0" standalone="no"?>
<!DOCTYPE svg PUBLIC "-//W3C//DTD SVG 20010904//EN"
 "http://www.w3.org/TR/2001/REC-SVG-20010904/DTD/svg10.dtd">
<svg version="1.0" xmlns="http://www.w3.org/2000/svg"
 width="1376.000000pt" height="1303.000000pt" viewBox="0 0 1376.000000 1303.000000"
 preserveAspectRatio="xMidYMid meet">
<metadata>
Created by potrace 1.14, written by Peter Selinger 2001-2017
</metadata>
<g transform="translate(0.000000,1303.000000) scale(0.100000,-0.100000)"
fill="#000000" stroke="none">
<path d="M4710 13024 c-19 -2 -91 -9 -160 -14 -915 -79 -1835 -440 -2585
-1015 -886 -681 -1527 -1645 -1805 -2717 -116 -449 -155 -767 -155 -1263 0
-345 7 -459 46 -725 155 -1064 652 -2053 1419 -2820 724 -723 1650 -1210 2644
-1390 344 -62 494 -74 901 -74 320 0 394 3 550 22 247 30 437 64 651 117 720
178 1385 509 1967 982 76 62 92 71 106 60 79 -62 4601 -3996 4646 -4041 185
-187 482 -193 671 -14 108 102 154 209 154 358 0 151 -45 254 -158 363 -31 30
-1090 951 -2352 2047 -1262 1095 -2296 1994 -2298 1998 -1 4 25 43 59 87 310
404 589 928 756 1420 118 348 193 685 240 1080 25 216 26 845 0 1060 -27 225
-72 479 -118 664 -49 201 -166 557 -244 741 -609 1443 -1863 2530 -3367 2920
-254 66 -465 104 -748 136 -127 15 -732 28 -820 18z m748 -659 c1010 -106
1931 -544 2647 -1260 930 -930 1386 -2205 1259 -3520 -129 -1345 -887 -2562
-2047 -3287 -167 -104 -511 -278 -687 -347 -380 -150 -751 -241 -1172 -288
-211 -23 -675 -23 -886 0 -548 61 -996 191 -1477 427 -590 290 -1085 686
-1493 1195 -793 990 -1116 2274 -886 3523 284 1550 1399 2839 2894 3347 387
131 758 202 1205 229 118 7 499 -4 643 -19z"/>
</g>
</svg>
