<?xml version="1.0" standalone="no"?>
<!DOCTYPE svg PUBLIC "-//W3C//DTD SVG 20010904//EN"
 "http://www.w3.org/TR/2001/REC-SVG-20010904/DTD/svg10.dtd">
<svg version="1.0" xmlns="http://www.w3.org/2000/svg"
 width="1215.000000pt" height="1368.000000pt" viewBox="0 0 1215.000000 1368.000000"
 preserveAspectRatio="xMidYMid meet">
<metadata>
Created by potrace 1.14, written by Peter Selinger 2001-2017
</metadata>
<g transform="translate(0.000000,1368.000000) scale(0.100000,-0.100000)"
fill="#000000" stroke="none">
<path d="M1480 13664 c-104 -27 -215 -90 -288 -162 -77 -77 -122 -149 -160
-254 l-27 -73 0 -4965 0 -4965 23 -74 24 -74 -29 -27 c-41 -40 -706 -645 -866
-788 -75 -68 -142 -132 -147 -142 -36 -67 23 -140 111 -140 65 0 103 29 364
288 143 141 351 347 462 456 l201 199 64 -57 c66 -60 164 -115 258 -143 50
-16 192 -18 1711 -23 l1656 -5 -328 -1200 c-180 -660 -331 -1210 -334 -1223
l-5 -22 -246 0 c-270 0 -290 -4 -337 -59 -34 -40 -36 -101 -7 -149 38 -63 32
-62 643 -62 l554 0 34 23 c93 62 86 182 -14 228 -36 16 -67 19 -229 19 -134 0
-188 3 -188 11 0 7 149 558 332 1225 l331 1214 1635 -2 1635 -3 333 -1220
c184 -671 334 -1221 334 -1222 0 -2 -82 -3 -182 -3 -101 0 -200 -5 -220 -10
-20 -6 -50 -26 -67 -46 -38 -42 -42 -101 -11 -152 38 -63 32 -62 642 -62 534
0 554 1 586 20 97 60 91 184 -11 231 -38 17 -68 19 -287 19 l-245 0 -328 1203
c-180 661 -331 1212 -334 1224 l-5 23 1553 2 c1458 3 1558 4 1614 21 228 68
390 235 450 462 13 53 15 573 15 5000 l0 4940 -21 75 c-31 113 -74 185 -164
275 -89 90 -181 143 -295 169 -58 14 -618 16 -5100 15 -4348 0 -5043 -2 -5090
-15z m10222 -247 c88 -43 152 -107 195 -195 l28 -57 0 -4960 0 -4960 -33 -67
c-59 -120 -168 -203 -297 -227 -78 -15 -9942 -16 -10029 -1 -78 13 -154 50
-213 106 l-48 44 101 98 c149 143 3424 3374 3424 3378 0 2 -615 -565 -1368
-1259 -752 -694 -1562 -1441 -1799 -1659 l-432 -397 -6 42 c-3 23 -4 2247 -3
4942 l3 4900 21 52 c47 114 142 205 256 244 51 18 234 18 5089 16 l5035 -2 76
-38z"/>
<path d="M9612 11194 c-67 -34 -62 214 -62 -2919 l0 -2845 -530 0 -530 0 0
2114 0 2113 -21 26 c-11 15 -38 32 -60 38 -50 16 -109 -1 -138 -38 l-21 -26 0
-2113 0 -2114 -540 0 -540 0 0 1633 c0 1621 0 1633 -20 1655 -47 51 -158 48
-199 -5 -21 -26 -21 -27 -21 -1654 l0 -1629 -600 0 -600 0 0 1245 c0 1371 4
1291 -61 1314 -71 25 -161 3 -179 -44 -6 -17 -10 -471 -10 -1271 l0 -1244
-340 0 c-375 0 -395 -3 -424 -59 -9 -16 -16 -49 -16 -72 0 -33 6 -47 34 -75
l34 -34 2930 0 2930 0 31 26 c17 14 36 43 42 64 10 32 9 44 -7 77 -36 73 -36
73 -496 73 l-408 0 0 2835 c0 3076 4 2883 -53 2920 -38 24 -87 28 -125 9z"/>
</g>
</svg>
