<?xml version="1.0" standalone="no"?>
<!DOCTYPE svg PUBLIC "-//W3C//DTD SVG 20010904//EN"
 "http://www.w3.org/TR/2001/REC-SVG-20010904/DTD/svg10.dtd">
<svg version="1.0" xmlns="http://www.w3.org/2000/svg"
 width="1397.000000pt" height="1355.000000pt" viewBox="0 0 1397.000000 1355.000000"
 preserveAspectRatio="xMidYMid meet">
<metadata>
Created by potrace 1.14, written by Peter Selinger 2001-2017
</metadata>
<g transform="translate(0.000000,1355.000000) scale(0.100000,-0.100000)"
fill="#000000" stroke="none">
<path d="M9540 13543 c-447 -46 -852 -218 -1200 -511 -138 -117 -1420 -1408
-1526 -1537 -240 -293 -398 -535 -534 -818 -223 -466 -325 -964 -291 -1424 27
-353 98 -645 250 -1017 23 -55 41 -105 41 -111 0 -7 -35 -41 -77 -75 -43 -35
-198 -183 -346 -329 l-267 -266 -1518 1518 -1517 1517 321 322 c348 349 353
355 340 446 -3 25 -16 61 -29 79 -16 24 -318 228 -1082 731 -583 383 -1080
707 -1104 719 -52 27 -118 30 -164 7 -46 -23 -794 -771 -819 -818 -15 -30 -19
-53 -16 -96 4 -56 12 -69 719 -1145 570 -868 722 -1093 752 -1113 25 -17 57
-27 92 -30 93 -8 114 9 429 329 156 159 288 289 293 289 4 0 689 -681 1520
-1512 l1513 -1513 -2113 -2115 c-1631 -1632 -2125 -2132 -2164 -2190 -215
-320 -276 -709 -173 -1116 77 -307 231 -570 477 -818 335 -338 718 -515 1153
-533 300 -12 563 60 800 220 57 39 451 427 1680 1654 883 882 1608 1603 1611
1603 4 0 804 -808 1779 -1796 1172 -1188 1799 -1816 1850 -1853 151 -113 347
-193 548 -227 138 -22 394 -15 530 15 212 47 408 132 598 260 416 279 697 682
794 1138 27 124 37 365 21 485 -31 229 -117 440 -251 612 -21 28 -723 744
-1558 1591 l-1519 1540 421 6 c313 4 452 10 541 23 469 66 918 248 1330 540
248 175 342 262 1023 940 371 369 710 714 754 766 360 427 538 947 515 1500
-21 495 -153 1000 -452 1730 -53 129 -104 254 -113 278 l-16 42 -771 -768
c-423 -423 -808 -799 -855 -836 -235 -186 -435 -283 -630 -305 -269 -30 -496
69 -773 338 -142 138 -232 253 -292 376 -65 130 -80 196 -79 345 1 152 21 236
93 383 56 116 120 214 217 337 37 47 412 430 832 852 l765 767 -39 16 c-339
145 -698 284 -919 355 -296 95 -659 175 -909 199 -101 10 -404 13 -486 4z
m629 -412 c258 -45 405 -83 805 -212 l250 -81 -561 -556 c-308 -307 -597 -602
-643 -657 -604 -734 -571 -1397 100 -2028 214 -202 414 -320 650 -384 86 -24
113 -27 275 -27 158 0 191 2 270 23 245 65 479 191 720 392 55 46 353 335 662
642 l561 559 20 -63 c11 -35 52 -165 91 -289 150 -469 211 -792 211 -1109 0
-439 -125 -788 -407 -1141 -75 -94 -1041 -1071 -1278 -1293 -229 -214 -409
-354 -620 -482 -788 -478 -1614 -500 -2510 -66 l-140 68 -240 241 c-294 294
-367 346 -625 442 l-75 28 -442 -441 -442 -441 -413 409 c-227 225 -438 433
-468 462 l-55 53 250 251 c318 319 355 346 605 439 63 24 116 44 117 45 2 1
-39 78 -90 172 -196 360 -307 683 -352 1026 -20 154 -20 459 0 614 64 491 292
990 668 1458 136 169 211 247 923 956 606 604 679 670 859 778 193 116 393
188 630 226 138 22 531 14 694 -14z m-8309 -1366 c459 -301 841 -553 847 -559
10 -9 -112 -136 -541 -565 l-554 -554 -160 244 c-88 134 -352 534 -585 889
l-425 645 251 252 250 252 41 -28 c23 -15 417 -274 876 -576z m4221 -6229
l-444 -444 33 -89 c89 -237 146 -318 422 -598 l227 -231 -1607 -1606 c-1256
-1255 -1620 -1613 -1668 -1642 -165 -97 -290 -130 -494 -130 -168 1 -274 21
-423 80 -186 73 -346 180 -497 333 -202 203 -319 403 -387 659 -23 86 -26 117
-27 267 0 146 3 181 22 250 25 90 75 201 123 272 17 27 977 994 2133 2151
l2101 2102 465 -465 465 -465 -444 -444z m3892 -1030 c1263 -1280 2181 -2218
2205 -2253 73 -108 119 -221 141 -347 17 -96 13 -283 -8 -393 -87 -444 -452
-871 -896 -1046 -254 -101 -556 -107 -783 -16 -146 58 -192 97 -598 508 -210
212 -1187 1203 -2172 2201 l-1791 1815 862 863 c474 474 865 862 868 862 4 0
981 -987 2172 -2194z"/>
</g>
</svg>
