<?xml version="1.0" standalone="no"?>
<!DOCTYPE svg PUBLIC "-//W3C//DTD SVG 20010904//EN"
 "http://www.w3.org/TR/2001/REC-SVG-20010904/DTD/svg10.dtd">
<svg version="1.0" xmlns="http://www.w3.org/2000/svg"
 width="898.000000pt" height="1376.000000pt" viewBox="0 0 898.000000 1376.000000"
 preserveAspectRatio="xMidYMid meet">
<metadata>
Created by potrace 1.14, written by Peter Selinger 2001-2017
</metadata>
<g transform="translate(0.000000,1376.000000) scale(0.100000,-0.100000)"
fill="#000000" stroke="none">
<path d="M5090 13747 c-208 -80 -473 -195 -508 -220 -92 -66 -152 -185 -152
-300 0 -77 10 -108 90 -274 33 -69 59 -127 58 -128 -2 -1 -41 -21 -87 -44 -46
-22 -106 -58 -135 -78 -84 -61 -204 -182 -282 -285 l-74 -97 -68 30 c-37 17
-107 49 -157 72 -85 39 -95 41 -185 42 -82 0 -102 -4 -152 -27 -67 -31 -140
-96 -173 -152 -13 -23 -65 -143 -115 -269 -107 -264 -115 -305 -82 -413 25
-80 77 -153 142 -200 52 -37 437 -194 476 -194 73 0 122 57 111 127 -11 67
-29 79 -282 189 -132 58 -244 109 -248 113 -8 8 234 606 252 623 4 5 115 -39
248 -97 250 -109 295 -121 340 -90 11 8 50 56 86 107 134 189 271 326 483 483
120 90 140 118 131 183 -3 20 -51 142 -107 270 -56 129 -100 235 -98 236 11 8
615 256 623 256 6 0 57 -109 115 -243 57 -133 114 -252 126 -264 34 -34 69
-38 179 -19 230 39 511 39 725 1 125 -22 154 -20 189 13 19 18 61 103 132 269
57 134 108 243 114 243 7 0 612 -248 623 -256 2 -1 -44 -111 -102 -245 -111
-253 -123 -300 -91 -346 8 -11 56 -50 107 -86 188 -134 349 -295 485 -485 74
-104 94 -121 151 -129 34 -5 73 9 283 101 133 58 246 103 250 99 15 -15 260
-614 255 -622 -3 -4 -112 -54 -243 -111 -131 -56 -248 -112 -261 -123 -36 -33
-40 -70 -20 -181 40 -223 41 -502 3 -716 -20 -116 -19 -162 4 -192 14 -17 102
-60 270 -134 138 -60 251 -112 251 -117 0 -11 -251 -611 -258 -619 -4 -3 -115
41 -246 98 -305 132 -330 134 -402 25 -118 -179 -302 -370 -495 -513 -63 -48
-121 -94 -129 -102 -7 -9 -15 -38 -17 -64 -3 -42 8 -73 101 -287 58 -132 102
-243 98 -246 -11 -11 -622 -263 -625 -258 -2 2 -50 112 -107 244 -57 132 -114
252 -128 267 -37 40 -81 45 -134 16 -32 -18 -46 -33 -56 -62 -12 -37 -10 -45
79 -268 84 -211 95 -234 145 -287 66 -72 145 -110 242 -117 82 -7 90 -4 387
116 228 93 230 94 296 159 56 56 69 77 89 135 18 55 21 83 17 140 -4 61 -14
92 -76 225 -39 85 -70 155 -68 156 1 1 38 30 82 65 117 94 275 250 377 373 50
59 93 107 97 107 4 0 70 -29 147 -64 77 -35 165 -69 196 -75 108 -23 234 19
322 106 58 57 70 81 181 353 85 206 88 218 89 295 1 71 -3 88 -32 147 -51 104
-116 156 -297 237 l-150 67 5 110 c7 157 6 431 -2 560 l-7 110 144 65 c158 70
222 111 272 177 44 57 77 167 71 235 -5 65 -185 511 -232 577 -74 103 -208
167 -331 158 -49 -4 -94 -20 -219 -77 -87 -39 -159 -71 -160 -71 -2 0 -41 46
-86 102 -106 129 -239 262 -368 367 l-100 83 27 61 c16 34 48 105 72 157 41
90 44 100 44 185 0 79 -4 97 -29 149 -16 32 -52 81 -81 110 -48 49 -67 58
-306 156 -253 104 -254 104 -339 105 -71 0 -94 -4 -140 -26 -76 -36 -154 -109
-183 -172 -14 -29 -48 -105 -78 -170 l-53 -117 -50 7 c-65 10 -628 10 -682 1
l-41 -8 -73 161 c-86 189 -127 242 -226 290 -53 26 -80 33 -142 36 -49 2 -90
-2 -112 -10z"/>
<path d="M5885 12129 c-156 -20 -365 -91 -495 -168 -379 -226 -619 -626 -624
-1044 l-1 -98 37 -35 c21 -19 48 -34 60 -35 113 -6 140 29 157 207 14 143 40
236 101 359 131 266 368 457 660 531 106 27 363 27 470 0 216 -55 408 -177
546 -350 166 -207 243 -467 214 -723 -35 -321 -203 -588 -478 -760 -145 -91
-290 -133 -456 -133 -87 0 -97 -2 -125 -26 -44 -37 -58 -94 -34 -141 30 -62
63 -78 148 -76 203 6 454 92 650 221 93 61 248 213 318 310 105 145 186 340
218 522 19 104 16 306 -6 405 -61 285 -176 496 -376 690 -203 197 -439 309
-724 344 -102 12 -160 12 -260 0z"/>
<path d="M3308 10265 c-504 -69 -930 -343 -1181 -762 -133 -220 -223 -502
-264 -824 -25 -199 -25 -799 0 -994 116 -894 450 -1473 1000 -1735 463 -221
1081 -223 1519 -5 350 176 647 533 812 976 132 358 196 754 196 1225 0 438
-35 716 -125 991 -208 635 -696 1041 -1355 1129 -132 17 -470 17 -602 -1z
m654 -264 c144 -29 241 -62 373 -125 274 -132 470 -331 611 -621 112 -230 152
-409 185 -820 19 -236 20 -282 10 -493 -24 -471 -104 -824 -262 -1141 -83
-169 -167 -289 -284 -406 -181 -182 -414 -301 -685 -352 -138 -25 -467 -25
-605 1 -288 54 -494 161 -690 360 -147 148 -239 288 -330 501 -188 442 -257
1084 -184 1735 49 439 229 817 498 1047 223 190 478 298 787 333 140 15 455 5
576 -19z"/>
<path d="M2225 5464 c-430 -276 -908 -495 -1372 -628 -105 -30 -215 -65 -245
-77 -339 -145 -544 -465 -598 -934 -20 -179 -5 -744 26 -951 34 -234 84 -324
179 -324 35 0 49 6 74 30 41 42 46 80 22 170 -11 41 -25 111 -31 155 -14 114
-33 678 -27 815 15 316 126 576 308 726 79 65 174 107 356 158 479 135 996
369 1418 643 124 81 153 107 165 154 16 58 4 93 -40 118 -68 38 -102 30 -235
-55z"/>
<path d="M4810 5527 c-13 -7 -35 -28 -48 -47 -33 -49 -25 -104 20 -145 71 -65
413 -268 668 -396 311 -156 638 -283 926 -359 155 -41 265 -95 348 -171 156
-143 248 -357 276 -645 9 -91 10 -196 1 -444 -11 -334 -27 -500 -57 -594 -20
-64 -14 -93 28 -142 31 -35 34 -36 86 -32 66 6 85 23 113 103 51 145 68 342
70 790 1 347 -8 451 -57 632 -97 362 -317 613 -624 711 -36 11 -108 32 -161
46 -387 103 -844 307 -1282 572 -76 46 -141 84 -143 84 -3 0 -20 11 -38 25
-36 28 -86 32 -126 12z"/>
<path d="M4151 5375 c-35 -30 -47 -65 -55 -158 -13 -167 -156 -334 -333 -392
-40 -13 -77 -16 -155 -13 -90 3 -111 7 -171 36 -154 72 -266 241 -267 402 -1
122 -131 184 -214 101 -28 -28 -31 -38 -34 -103 -7 -129 39 -275 121 -390 l52
-73 -89 -2081 c-75 -1754 -87 -2087 -76 -2113 16 -39 566 -549 618 -573 49
-23 70 -22 114 5 53 31 592 516 614 552 16 24 19 47 17 120 -1 50 -41 977 -89
2062 l-86 1972 50 64 c99 130 156 262 168 394 8 90 -6 133 -59 178 -49 42 -84
45 -126 10z m-695 -786 c97 -33 129 -36 316 -24 l116 7 6 -83 c13 -175 168
-3770 163 -3783 -4 -11 -130 -120 -419 -364 l-27 -23 -198 177 c-109 97 -206
184 -215 193 -16 15 -13 124 67 1926 47 1051 85 1931 85 1958 0 26 4 47 8 47
5 0 48 -14 98 -31z"/>
</g>
</svg>
