<?xml version="1.0" standalone="no"?>
<!DOCTYPE svg PUBLIC "-//W3C//DTD SVG 20010904//EN"
 "http://www.w3.org/TR/2001/REC-SVG-20010904/DTD/svg10.dtd">
<svg version="1.0" xmlns="http://www.w3.org/2000/svg"
 width="1239.000000pt" height="1323.000000pt" viewBox="0 0 1239.000000 1323.000000"
 preserveAspectRatio="xMidYMid meet">
<metadata>
Created by potrace 1.14, written by Peter Selinger 2001-2017
</metadata>
<g transform="translate(0.000000,1323.000000) scale(0.100000,-0.100000)"
fill="#000000" stroke="none">
<path d="M10005 13214 c-536 -90 -970 -474 -1120 -989 -44 -150 -58 -271 -51
-440 8 -216 50 -384 142 -568 197 -394 550 -661 994 -754 119 -25 392 -25 510
0 512 108 908 454 1068 934 53 156 67 248 67 443 0 147 -4 192 -23 280 -129
579 -574 1001 -1157 1095 -110 18 -322 18 -430 -1z m411 -249 c364 -64 669
-292 834 -622 281 -565 46 -1253 -524 -1533 -181 -89 -370 -128 -566 -116
-535 32 -979 432 -1065 957 -91 562 240 1101 785 1278 156 50 370 64 536 36z"/>
<path d="M1960 13175 c-314 -52 -588 -197 -804 -426 -190 -202 -313 -450 -361
-728 -19 -108 -19 -344 0 -452 34 -198 111 -391 223 -558 31 -47 106 -136 167
-197 204 -205 435 -330 720 -389 205 -43 477 -27 689 42 228 74 416 192 586
370 255 266 384 588 384 958 0 370 -129 692 -384 958 -202 211 -433 343 -719
408 -115 27 -381 34 -501 14z m446 -259 c296 -64 559 -244 722 -494 251 -386
251 -868 0 -1254 -208 -318 -577 -518 -956 -518 -161 0 -369 48 -504 116 -294
147 -519 423 -605 741 -25 90 -27 114 -27 288 0 174 2 198 27 288 120 443 491
777 942 847 84 13 316 5 401 -14z"/>
<path d="M5975 11919 c-598 -77 -1118 -505 -1304 -1076 -61 -187 -76 -287 -75
-508 0 -209 16 -313 75 -490 223 -669 868 -1113 1569 -1081 581 26 1091 359
1352 881 167 333 209 720 119 1079 -71 281 -197 507 -395 713 -215 224 -459
368 -751 443 -187 48 -405 62 -590 39z m480 -269 c461 -100 849 -453 988 -896
46 -147 61 -246 60 -414 0 -235 -39 -395 -146 -605 -126 -246 -321 -442 -567
-569 -218 -112 -374 -150 -620 -149 -230 0 -377 33 -575 128 -372 180 -642
525 -731 935 -26 119 -26 410 -1 528 59 270 175 482 371 678 213 214 469 343
762 383 112 16 344 6 459 -19z"/>
<path d="M8701 10099 c-325 -42 -584 -289 -647 -617 -9 -48 -14 -143 -14 -271
l0 -197 66 -32 c408 -201 687 -499 809 -865 74 -222 70 -94 70 -2092 0 -1708
-1 -1795 -19 -1890 -24 -129 -65 -253 -122 -373 l-46 -96 4 -165 c4 -148 8
-175 32 -246 40 -118 98 -209 190 -300 129 -127 268 -194 451 -216 49 -6 365
-9 795 -7 700 4 717 4 793 26 219 61 394 203 487 397 80 166 74 49 77 1461 l3
1261 84 12 c187 26 319 92 452 226 78 78 99 106 137 186 89 184 82 33 82 1694
l0 1470 -23 79 c-39 136 -95 229 -197 332 -132 133 -269 201 -449 224 -98 12
-2919 12 -3015 -1z m3081 -269 c81 -25 171 -82 226 -145 56 -64 109 -175 122
-255 14 -90 14 -2782 0 -2870 -25 -157 -134 -302 -280 -374 -86 -42 -174 -56
-357 -56 l-113 0 0 -1347 c0 -1482 2 -1414 -61 -1534 -61 -113 -183 -211 -306
-245 -64 -18 -116 -19 -803 -19 -733 0 -735 0 -806 22 -133 42 -243 135 -303
258 -40 81 -50 132 -51 248 0 85 3 104 25 147 62 122 107 264 143 445 13 70
16 292 19 1815 3 1223 1 1773 -7 1865 -20 235 -72 420 -176 630 -155 314 -387
553 -716 739 l-48 27 0 103 c0 56 5 129 11 162 31 172 164 322 339 381 l65 22
1506 1 c1475 0 1508 0 1571 -20z"/>
<path d="M574 10071 c-257 -63 -457 -253 -546 -516 l-23 -70 -3 -1478 c-2
-1460 -2 -1480 18 -1565 31 -130 88 -238 179 -334 127 -136 261 -206 446 -236
l104 -16 3 -1251 c4 -1411 -3 -1291 85 -1475 40 -82 58 -107 142 -190 106
-106 195 -160 331 -201 75 -23 79 -23 805 -27 468 -2 758 1 808 7 334 45 594
292 653 621 7 41 13 125 14 186 0 109 -1 113 -39 196 -50 107 -97 239 -124
348 -21 85 -21 87 -25 1875 -2 1284 0 1818 8 1889 54 477 354 876 843 1122
l87 44 0 223 c0 193 -3 234 -21 302 -70 267 -281 478 -546 546 -74 18 -123 19
-1602 18 -1417 0 -1531 -2 -1597 -18z m3230 -279 c115 -57 181 -123 238 -238
l43 -87 4 -151 3 -151 -38 -18 c-115 -54 -272 -174 -405 -306 -253 -254 -399
-528 -471 -883 l-23 -113 0 -1840 0 -1840 22 -110 c27 -133 70 -268 125 -393
l41 -93 -6 -102 c-9 -158 -53 -260 -154 -358 -60 -59 -114 -92 -195 -121 l-63
-23 -710 -3 c-470 -2 -733 1 -780 8 -178 27 -327 148 -398 322 l-22 53 -5
1385 -5 1385 -190 5 c-162 5 -198 9 -243 27 -157 63 -265 184 -307 344 -23 84
-22 2888 0 2974 44 168 187 314 355 361 35 10 369 12 1571 11 l1526 -2 87 -43z"/>
<path d="M4294 8385 c-272 -59 -496 -277 -564 -549 -20 -78 -20 -116 -20
-1836 0 -1708 1 -1759 19 -1833 69 -267 280 -479 546 -547 43 -11 130 -23 192
-27 l113 -6 0 -1466 c0 -1594 -2 -1513 56 -1660 85 -215 285 -388 515 -445 58
-14 173 -16 1030 -16 945 0 966 0 1039 21 256 71 439 248 527 509 l28 85 3
1491 2 1491 62 7 c33 3 82 6 108 6 120 0 314 77 427 170 112 92 206 237 250
385 17 57 18 158 21 1814 2 1736 2 1754 -18 1839 -66 277 -278 492 -554 562
-78 20 -111 20 -1900 19 -1479 0 -1833 -3 -1882 -14z m3748 -255 c171 -53 311
-205 347 -378 16 -75 16 -3419 0 -3494 -31 -148 -135 -280 -277 -351 l-85 -42
-249 -3 -248 -4 0 -1572 c0 -1086 -3 -1591 -11 -1632 -15 -85 -62 -175 -125
-243 -65 -71 -126 -111 -214 -143 l-65 -23 -895 -3 c-607 -2 -918 1 -965 8
-183 29 -339 163 -408 353 -9 24 -13 452 -17 1637 l-5 1605 -245 5 c-273 6
-291 10 -404 85 -97 64 -179 182 -205 295 -7 30 -11 616 -11 1770 0 1889 -3
1780 58 1894 35 65 133 163 198 198 111 60 -3 57 1960 57 1770 1 1803 1 1866
-19z"/>
</g>
</svg>
